<svg width="172" height="172" viewBox="0 0 172 172" fill="none" xmlns="http://www.w3.org/2000/svg">
<path fill-rule="evenodd" clip-rule="evenodd" d="M93.8409 126.114C72.7662 126.114 55.6818 110.667 55.6818 91.6136C55.6818 72.5598 72.7662 57.1136 93.8409 57.1136C114.916 57.1136 132 72.5598 132 91.6136C132 99.7192 128.908 107.172 123.733 113.06C124.192 113.478 124.529 114.048 124.655 114.738L126.379 124.221C126.792 126.493 124.59 128.36 122.416 127.582L113.341 124.333C112.323 123.969 111.668 123.152 111.441 122.233C106.175 124.712 100.189 126.114 93.8409 126.114Z" fill="#1D506D"/>
<mask id="path-2-outside-1" maskUnits="userSpaceOnUse" x="34" y="37" width="89" height="83" fill="black">
<rect fill="white" x="34" y="37" width="89" height="83"/>
<path fill-rule="evenodd" clip-rule="evenodd" d="M78.1591 112C99.2338 112 116.318 96.5538 116.318 77.5C116.318 58.4462 99.2338 43 78.1591 43C57.0844 43 40 58.4462 40 77.5C40 85.6056 43.0917 93.0583 48.2672 98.9467C47.8084 99.3644 47.4706 99.9343 47.3453 100.624L45.6214 110.107C45.2084 112.38 47.4099 114.247 49.5842 113.468L58.659 110.22C59.6773 109.855 60.3319 109.038 60.5592 108.119C65.8252 110.599 71.8112 112 78.1591 112Z"/>
</mask>
<path fill-rule="evenodd" clip-rule="evenodd" d="M78.1591 112C99.2338 112 116.318 96.5538 116.318 77.5C116.318 58.4462 99.2338 43 78.1591 43C57.0844 43 40 58.4462 40 77.5C40 85.6056 43.0917 93.0583 48.2672 98.9467C47.8084 99.3644 47.4706 99.9343 47.3453 100.624L45.6214 110.107C45.2084 112.38 47.4099 114.247 49.5842 113.468L58.659 110.22C59.6773 109.855 60.3319 109.038 60.5592 108.119C65.8252 110.599 71.8112 112 78.1591 112Z" fill="#1D506D"/>
<path d="M48.2672 98.9467L52.3059 103.384L56.6667 99.4148L52.7739 94.9857L48.2672 98.9467ZM47.3453 100.624L41.442 99.5509L41.442 99.5509L47.3453 100.624ZM45.6214 110.107L51.5247 111.18L51.5247 111.18L45.6214 110.107ZM49.5842 113.468L47.5619 107.819L47.5619 107.819L49.5842 113.468ZM58.659 110.22L60.6813 115.869L60.6813 115.869L58.659 110.22ZM60.5592 108.119L63.115 102.691L56.4925 99.573L54.7348 106.678L60.5592 108.119ZM110.318 77.5C110.318 92.6854 96.5034 106 78.1591 106V118C101.964 118 122.318 100.422 122.318 77.5H110.318ZM78.1591 49C96.5034 49 110.318 62.3146 110.318 77.5H122.318C122.318 54.5778 101.964 37 78.1591 37V49ZM46 77.5C46 62.3146 59.8148 49 78.1591 49V37C54.3541 37 34 54.5778 34 77.5H46ZM52.7739 94.9857C48.4806 90.1009 46 84.0304 46 77.5H34C34 87.1808 37.7029 96.0157 43.7605 102.908L52.7739 94.9857ZM53.2485 101.697C53.1312 102.343 52.7908 102.943 52.3059 103.384L44.2285 94.5095C42.8259 95.7861 41.8101 97.5261 41.442 99.5509L53.2485 101.697ZM51.5247 111.18L53.2485 101.697L41.442 99.5509L39.7181 109.034L51.5247 111.18ZM47.5619 107.819C49.7362 107.041 51.9377 108.908 51.5247 111.18L39.7181 109.034C38.4791 115.851 45.0837 121.452 51.6065 119.117L47.5619 107.819ZM56.6366 104.571L47.5619 107.819L51.6065 119.117L60.6813 115.869L56.6366 104.571ZM54.7348 106.678C54.9559 105.785 55.6326 104.93 56.6366 104.571L60.6813 115.869C63.7219 114.78 65.7079 112.292 66.3836 109.56L54.7348 106.678ZM78.1591 106C72.6973 106 67.5838 104.795 63.115 102.691L58.0035 113.548C64.0667 116.402 70.925 118 78.1591 118V106Z" fill="white" mask="url(#path-2-outside-1)"/>
<circle cx="62.2159" cy="77.7614" r="4.96591" fill="white"/>
<circle cx="77.8977" cy="77.7614" r="4.96591" fill="white"/>
<circle cx="93.5796" cy="77.7614" r="4.96591" fill="white"/>
<circle cx="86" cy="86" r="79.5" stroke="#1D506D" stroke-width="13"/>
</svg>
