<svg width="172" height="172" viewBox="0 0 172 172" fill="none" xmlns="http://www.w3.org/2000/svg">
<path d="M48.3785 110.379C59.2122 110.379 68.2571 102.077 68.2571 91.5223C68.2571 80.9676 59.2122 72.666 48.3785 72.666C37.5449 72.666 28.5 80.9676 28.5 91.5223C28.5 102.077 37.5449 110.379 48.3785 110.379Z" fill="#1D506D" stroke="white" stroke-width="5"/>
<path d="M126.184 110.379C137.018 110.379 146.063 102.077 146.063 91.5223C146.063 80.9676 137.018 72.666 126.184 72.666C115.351 72.666 106.306 80.9676 106.306 91.5223C106.306 102.077 115.351 110.379 126.184 110.379Z" fill="#1D506D" stroke="white" stroke-width="5"/>
<path d="M86.1843 143.5C104.241 143.5 119.148 129.71 119.148 112.377C119.148 95.0431 104.241 81.2531 86.1843 81.2531C68.128 81.2531 53.2207 95.0431 53.2207 112.377C53.2207 129.71 68.128 143.5 86.1843 143.5Z" fill="#1D506D" stroke="white" stroke-width="5"/>
<path d="M48.3787 77.6659C56.381 77.6659 62.9414 71.2776 62.9414 63.3076C62.9414 55.3377 56.381 48.9493 48.3787 48.9493C40.3763 48.9493 33.8159 55.3377 33.8159 63.3076C33.8159 71.2776 40.3763 77.6659 48.3787 77.6659Z" fill="#1D506D" stroke="white" stroke-width="5"/>
<path d="M126.184 77.6659C134.186 77.6659 140.747 71.2776 140.747 63.3076C140.747 55.3377 134.186 48.9493 126.184 48.9493C118.182 48.9493 111.621 55.3377 111.621 63.3076C111.621 71.2776 118.182 77.6659 126.184 77.6659Z" fill="#1D506D" stroke="white" stroke-width="5"/>
<path d="M55.9434 66.9878H40.4049C41.798 68.896 43.5983 72.7125 48.2277 72.7125C53.3929 72.7125 55.1932 68.896 55.9434 66.9878Z" fill="white"/>
<path d="M133.749 66.9878H118.21C119.604 68.896 121.404 72.7125 126.033 72.7125C131.198 72.7125 132.999 68.896 133.749 66.9878Z" fill="white"/>
<circle cx="122.708" cy="60.4453" r="1.22672" fill="white"/>
<circle cx="52.4677" cy="60.2409" r="1.43117" fill="white"/>
<circle cx="130.273" cy="60.2409" r="1.43117" fill="white"/>
<circle cx="43.8806" cy="60.2409" r="1.43117" fill="white"/>
<circle cx="87.002" cy="61.8765" r="24.3765" fill="#1D506D" stroke="white" stroke-width="5"/>
<path d="M100.646 68.4191H71C73.6579 71.8266 77.0927 78.6417 85.9251 78.6417C95.7798 78.6417 99.2146 71.8266 100.646 68.4191Z" fill="white"/>
<circle cx="78.2105" cy="56.3562" r="2.86235" fill="white"/>
<circle cx="94.9758" cy="56.3562" r="2.86235" fill="white"/>
<circle cx="86" cy="86" r="79.5" stroke="#1D506D" stroke-width="13"/>
</svg>
