<svg width="416" height="416" viewBox="0 0 416 416" fill="none" xmlns="http://www.w3.org/2000/svg">
<path d="M207 13C155.37 13.2648 105.953 33.9945 69.5849 70.643C33.2172 107.291 12.8683 156.867 13.0006 208.497C13.133 260.128 33.736 309.598 70.2911 346.06C106.846 382.521 156.369 402.997 208 402.997C259.631 402.997 309.154 382.521 345.709 346.06C382.264 309.598 402.867 260.128 402.999 208.497C403.132 156.867 382.783 107.291 346.415 70.643C310.047 33.9945 260.63 13.2648 209 13H207Z" stroke="#C4C4C4" stroke-width="26" stroke-linejoin="round"/>
<path d="M208 13V403M403 208H13M57 88C101.073 119.442 153.861 136.342 208 136.342C262.139 136.342 314.927 119.442 359 88M359 328C314.927 296.558 262.139 279.658 208 279.658C153.861 279.658 101.073 296.558 57 328M208 18C180.212 41.4679 157.879 70.7166 142.56 103.705C127.241 136.694 119.304 172.628 119.304 209C119.304 245.372 127.241 281.306 142.56 314.295C157.879 347.283 180.212 376.532 208 400M208 18V400M208 18C235.788 41.4679 258.121 70.7166 273.44 103.705C288.759 136.694 296.696 172.628 296.696 209C296.696 245.372 288.759 281.306 273.44 314.295C258.121 347.283 235.788 376.532 208 400" stroke="#C4C4C4" stroke-width="18" stroke-linejoin="round"/>
</svg>
