<svg width="172" height="172" viewBox="0 0 172 172" fill="none" xmlns="http://www.w3.org/2000/svg">
<rect x="68" y="40" width="38" height="79" rx="8" fill="#1D506D"/>
<path d="M91.9077 63.3587V65.3154H83.4462V63.3587H86.5452V54.4423C86.5452 54.0897 86.5558 53.7266 86.577 53.3529L84.377 55.1933C84.25 55.292 84.1231 55.3554 83.9962 55.3837C83.8763 55.4048 83.76 55.4048 83.6472 55.3837C83.5414 55.3625 83.4462 55.3272 83.3616 55.2779C83.277 55.2215 83.2135 55.1615 83.1712 55.0981L82.3462 53.9663L87.0106 50H89.1577V63.3587H91.9077Z" fill="white"/>
<rect x="32" y="67" width="32" height="52" rx="8" fill="#1D506D"/>
<path d="M52.5721 89.9904C52.8542 89.9904 53.0763 90.0715 53.2385 90.2337C53.4077 90.3888 53.4923 90.5968 53.4923 90.8577V92.4231H43V91.5558C43 91.3795 43.0353 91.1962 43.1058 91.0058C43.1833 90.8084 43.3032 90.6321 43.4654 90.477L48.1087 85.8231C48.4965 85.4282 48.842 85.051 49.1452 84.6914C49.4554 84.3318 49.7128 83.9757 49.9173 83.6231C50.1218 83.2706 50.2769 82.9145 50.3827 82.5548C50.4955 82.1882 50.5519 81.8039 50.5519 81.402C50.5519 81.0353 50.499 80.7145 50.3933 80.4395C50.2875 80.1574 50.1359 79.9212 49.9385 79.7308C49.7481 79.5404 49.5154 79.3994 49.2404 79.3077C48.9724 79.209 48.6692 79.1597 48.3308 79.1597C48.0205 79.1597 47.7314 79.2055 47.4635 79.2972C47.2026 79.3818 46.9699 79.5052 46.7654 79.6673C46.5609 79.8225 46.3881 80.0058 46.2471 80.2173C46.1061 80.4289 46.0003 80.6616 45.9298 80.9154C45.8099 81.2398 45.6548 81.4548 45.4644 81.5606C45.274 81.6664 44.999 81.6911 44.6394 81.6347L43.2644 81.3914C43.3702 80.6581 43.5747 80.0164 43.8779 79.4664C44.1811 78.9093 44.5583 78.4475 45.0096 78.0808C45.4679 77.7071 45.9897 77.4286 46.575 77.2452C47.1673 77.0548 47.8019 76.9597 48.4788 76.9597C49.184 76.9597 49.8292 77.0654 50.4144 77.277C50.9997 77.4814 51.5003 77.7741 51.9163 78.1548C52.3324 78.5356 52.6567 78.9939 52.8894 79.5298C53.1221 80.0657 53.2385 80.6616 53.2385 81.3173C53.2385 81.8815 53.1538 82.4032 52.9846 82.8827C52.8224 83.3622 52.6003 83.8206 52.3183 84.2577C52.0433 84.6949 51.7189 85.118 51.3452 85.527C50.9715 85.9359 50.5801 86.352 50.1712 86.775L46.7231 90.2972C47.0545 90.1984 47.3824 90.1244 47.7067 90.075C48.0381 90.0186 48.3519 89.9904 48.6481 89.9904H52.5721Z" fill="white"/>
<rect x="110" y="83" width="32" height="36" rx="8" fill="#1D506D"/>
<path d="M120.867 97.3913C120.973 96.658 121.178 96.0163 121.481 95.4663C121.784 94.9093 122.161 94.4474 122.612 94.0807C123.071 93.707 123.593 93.4285 124.178 93.2452C124.77 93.0548 125.405 92.9596 126.082 92.9596C126.787 92.9596 127.421 93.0618 127.986 93.2663C128.557 93.4638 129.043 93.7423 129.445 94.1019C129.847 94.4545 130.154 94.8705 130.365 95.35C130.584 95.8295 130.693 96.3477 130.693 96.9048C130.693 97.3913 130.637 97.8215 130.524 98.1952C130.418 98.5618 130.263 98.8827 130.059 99.1577C129.854 99.4327 129.6 99.6654 129.297 99.8557C128.994 100.046 128.652 100.205 128.271 100.332C129.188 100.621 129.872 101.062 130.323 101.654C130.774 102.246 131 102.99 131 103.886C131 104.647 130.859 105.32 130.577 105.906C130.295 106.491 129.914 106.985 129.435 107.387C128.955 107.781 128.398 108.081 127.763 108.286C127.136 108.49 126.47 108.592 125.764 108.592C124.996 108.592 124.326 108.504 123.755 108.328C123.184 108.152 122.686 107.891 122.263 107.545C121.84 107.2 121.481 106.777 121.185 106.276C120.888 105.775 120.635 105.197 120.423 104.541L121.576 104.065C121.879 103.938 122.161 103.907 122.422 103.97C122.69 104.027 122.884 104.168 123.004 104.393C123.131 104.64 123.268 104.883 123.416 105.123C123.571 105.363 123.755 105.578 123.966 105.768C124.178 105.952 124.425 106.103 124.707 106.223C124.996 106.336 125.338 106.392 125.733 106.392C126.177 106.392 126.565 106.322 126.896 106.181C127.228 106.033 127.503 105.842 127.721 105.61C127.947 105.377 128.112 105.12 128.218 104.837C128.331 104.548 128.387 104.259 128.387 103.97C128.387 103.604 128.349 103.272 128.271 102.976C128.194 102.673 128.031 102.415 127.785 102.204C127.538 101.992 127.182 101.827 126.716 101.707C126.258 101.587 125.641 101.527 124.865 101.527V99.6654C125.507 99.6583 126.039 99.5984 126.462 99.4856C126.886 99.3727 127.22 99.2176 127.467 99.0202C127.721 98.8157 127.897 98.5724 127.996 98.2904C128.095 98.0083 128.144 97.6981 128.144 97.3596C128.144 96.6404 127.943 96.0939 127.541 95.7202C127.139 95.3465 126.603 95.1596 125.934 95.1596C125.623 95.1596 125.338 95.2054 125.077 95.2971C124.816 95.3817 124.58 95.5051 124.368 95.6673C124.164 95.8224 123.991 96.0057 123.85 96.2173C123.709 96.4288 123.603 96.6615 123.533 96.9154C123.413 97.2397 123.254 97.4548 123.057 97.5606C122.866 97.6663 122.595 97.691 122.242 97.6346L120.867 97.3913Z" fill="white"/>
<circle cx="86" cy="86" r="79.5" stroke="#1D506D" stroke-width="13"/>
</svg>
