<svg width="339" height="159" viewBox="0 0 339 159" fill="none" xmlns="http://www.w3.org/2000/svg">
<path d="M87.2344 24.7422C87.2344 27.9219 86.1458 30.3711 83.9688 32.0898C81.806 33.7943 78.7051 34.6465 74.666 34.6465H70.9707V47H67.3184V15.5898H75.4609C83.3099 15.5898 87.2344 18.6406 87.2344 24.7422ZM70.9707 31.5098H74.2578C77.4948 31.5098 79.8366 30.987 81.2832 29.9414C82.7298 28.8958 83.4531 27.2201 83.4531 24.9141C83.4531 22.8372 82.7728 21.2904 81.4121 20.2734C80.0514 19.2565 77.9316 18.748 75.0527 18.748H70.9707V31.5098ZM96.6445 23.4531V38.7285C96.6445 40.6478 97.0814 42.0801 97.9551 43.0254C98.8288 43.9707 100.197 44.4434 102.059 44.4434C104.522 44.4434 106.32 43.7702 107.451 42.4238C108.597 41.0775 109.17 38.8789 109.17 35.8281V23.4531H112.736V47H109.793L109.277 43.8418H109.084C108.354 45.002 107.337 45.89 106.033 46.5059C104.744 47.1217 103.269 47.4297 101.607 47.4297C98.7428 47.4297 96.5944 46.7493 95.1621 45.3887C93.7441 44.028 93.0352 41.8509 93.0352 38.8574V23.4531H96.6445ZM131.062 23.0234C132.108 23.0234 133.046 23.1094 133.877 23.2812L133.383 26.5898C132.409 26.375 131.549 26.2676 130.805 26.2676C128.9 26.2676 127.267 27.041 125.906 28.5879C124.56 30.1348 123.887 32.0612 123.887 34.3672V47H120.32V23.4531H123.264L123.672 27.8145H123.844C124.717 26.2819 125.77 25.1003 127.002 24.2695C128.234 23.4388 129.587 23.0234 131.062 23.0234ZM153.471 40.5762C153.471 42.7676 152.654 44.4577 151.021 45.6465C149.389 46.8353 147.097 47.4297 144.146 47.4297C141.024 47.4297 138.589 46.9355 136.842 45.9473V42.6387C137.973 43.2116 139.184 43.6628 140.473 43.9922C141.776 44.3216 143.029 44.4863 144.232 44.4863C146.094 44.4863 147.527 44.1927 148.529 43.6055C149.532 43.0039 150.033 42.0944 150.033 40.877C150.033 39.9603 149.632 39.1797 148.83 38.5352C148.042 37.8763 146.495 37.1029 144.189 36.2148C141.998 35.3984 140.437 34.6895 139.506 34.0879C138.589 33.472 137.902 32.7773 137.443 32.0039C136.999 31.2305 136.777 30.3066 136.777 29.2324C136.777 27.3132 137.558 25.8021 139.119 24.6992C140.68 23.582 142.822 23.0234 145.543 23.0234C148.078 23.0234 150.556 23.5391 152.977 24.5703L151.709 27.4707C149.346 26.4967 147.204 26.0098 145.285 26.0098C143.595 26.0098 142.32 26.2747 141.461 26.8047C140.602 27.3346 140.172 28.0651 140.172 28.9961C140.172 29.6263 140.329 30.1634 140.645 30.6074C140.974 31.0514 141.497 31.474 142.213 31.875C142.929 32.276 144.304 32.8561 146.338 33.6152C149.131 34.6322 151.014 35.6562 151.988 36.6875C152.977 37.7188 153.471 39.015 153.471 40.5762ZM162.645 23.4531V38.7285C162.645 40.6478 163.081 42.0801 163.955 43.0254C164.829 43.9707 166.197 44.4434 168.059 44.4434C170.522 44.4434 172.32 43.7702 173.451 42.4238C174.597 41.0775 175.17 38.8789 175.17 35.8281V23.4531H178.736V47H175.793L175.277 43.8418H175.084C174.354 45.002 173.337 45.89 172.033 46.5059C170.744 47.1217 169.269 47.4297 167.607 47.4297C164.743 47.4297 162.594 46.7493 161.162 45.3887C159.744 44.028 159.035 41.8509 159.035 38.8574V23.4531H162.645ZM189.887 47H186.32V23.4531H189.887V47ZM186.02 17.0723C186.02 16.2559 186.22 15.6615 186.621 15.2891C187.022 14.9023 187.523 14.709 188.125 14.709C188.698 14.709 189.192 14.9023 189.607 15.2891C190.023 15.6758 190.23 16.2702 190.23 17.0723C190.23 17.8743 190.023 18.4759 189.607 18.877C189.192 19.2637 188.698 19.457 188.125 19.457C187.523 19.457 187.022 19.2637 186.621 18.877C186.22 18.4759 186.02 17.8743 186.02 17.0723ZM205.055 44.4863C205.685 44.4863 206.294 44.4434 206.881 44.3574C207.468 44.2572 207.934 44.1569 208.277 44.0566V46.7852C207.891 46.9714 207.318 47.1217 206.559 47.2363C205.814 47.3652 205.141 47.4297 204.539 47.4297C199.984 47.4297 197.707 45.0306 197.707 40.2324V26.2246H194.334V24.5059L197.707 23.0234L199.211 17.9961H201.273V23.4531H208.105V26.2246H201.273V40.082C201.273 41.5 201.61 42.5885 202.283 43.3477C202.956 44.1068 203.88 44.4863 205.055 44.4863ZM244.758 35.2051C244.758 39.0436 243.791 42.0443 241.857 44.207C239.924 46.3555 237.253 47.4297 233.844 47.4297C231.738 47.4297 229.869 46.9355 228.236 45.9473C226.604 44.959 225.343 43.541 224.455 41.6934C223.567 39.8457 223.123 37.6829 223.123 35.2051C223.123 31.3665 224.083 28.3802 226.002 26.2461C227.921 24.0977 230.585 23.0234 233.994 23.0234C237.288 23.0234 239.902 24.1191 241.836 26.3105C243.784 28.502 244.758 31.4668 244.758 35.2051ZM226.818 35.2051C226.818 38.2129 227.42 40.5046 228.623 42.0801C229.826 43.6556 231.595 44.4434 233.93 44.4434C236.264 44.4434 238.033 43.6628 239.236 42.1016C240.454 40.526 241.062 38.2272 241.062 35.2051C241.062 32.2116 240.454 29.9414 239.236 28.3945C238.033 26.8333 236.25 26.0527 233.887 26.0527C231.552 26.0527 229.79 26.819 228.602 28.3516C227.413 29.8841 226.818 32.1686 226.818 35.2051ZM261.645 26.2246H255.65V47H252.084V26.2246H247.873V24.6133L252.084 23.3242V22.0137C252.084 16.2272 254.612 13.334 259.668 13.334C260.914 13.334 262.375 13.5846 264.051 14.0859L263.127 16.9434C261.752 16.4993 260.577 16.2773 259.604 16.2773C258.257 16.2773 257.262 16.7285 256.617 17.6309C255.973 18.5189 255.65 19.9512 255.65 21.9277V23.4531H261.645V26.2246Z" fill="#1D506D"/>
<path d="M39.209 130H19.9219V74.3848H2.49023V58.6133H56.5918V74.3848H39.209V130ZM86.084 104.023V130H66.7969V58.6133H90.1855C109.587 58.6133 119.287 65.6445 119.287 79.707C119.287 87.9753 115.251 94.3717 107.178 98.8965L127.979 130H106.104L90.9668 104.023H86.084ZM86.084 89.5215H89.6973C96.4355 89.5215 99.8047 86.543 99.8047 80.5859C99.8047 75.6706 96.5007 73.2129 89.8926 73.2129H86.084V89.5215ZM134.473 130V58.6133H153.857V130H134.473ZM209.424 58.6133H231.006L207.617 130H184.912L161.621 58.6133H183.301L193.018 94.7949C195.036 102.835 196.143 108.434 196.338 111.592C196.566 109.313 197.021 106.465 197.705 103.047C198.389 99.6289 198.991 96.9434 199.512 94.9902L209.424 58.6133ZM238.77 130V58.6133H258.154V130H238.77ZM317.432 130L313.916 116.621H290.723L287.109 130H265.918L289.209 58.3203H314.941L338.525 130H317.432ZM309.912 100.801L306.836 89.082C306.12 86.4779 305.241 83.1087 304.199 78.9746C303.19 74.8405 302.523 71.8783 302.197 70.0879C301.904 71.748 301.318 74.4824 300.439 78.291C299.593 82.0996 297.689 89.6029 294.727 100.801H309.912Z" fill="#1D506D"/>
</svg>
